<svg viewBox="0 0 24 24" xmlns="http://www.w3.org/2000/svg"><path d="M11.41.005h1.072c2.433.213 4.617 2.035 5.196 4.415.35 1.573.149 3.167.196 4.766.045.009 2.055-.046 3.073.068.667.088.903.827.854 1.412-.015 4.016.008 8.035-.011 12.049.057.497-.227.879-.619 1.108a1.178 1.178 0 0 1-.603.167c-1.882.005-16.64.005-16.928.005l-.055-.001c-.385-.024-.74-.15-1.013-.386a.993.993 0 0 1-.345-.752l-.008-12.503c.01-.856.464-1.181 1.349-1.173.11.001 2.479.01 2.479.007.031-1.428-.063-2.86.123-4.289C6.575 2.334 8.831.252 11.41.005zM9.487 2.947C7.86 4.064 7.549 6.561 8.76 8.09c.952 1.275 2.665 1.773 4.195 1.479a8.508 8.508 0 0 1-.806 2.058c1.981-1.498 4.106-3.683 3.795-6.374-.437-2.864-4.286-4.118-6.457-2.306m1.014 11.15c-.761.936-.346 2.398.701 2.928a2.803 2.803 0 0 0-1.741 2.661c-.073.542.219 1.222.84 1.236 1.113.039 2.232.028 3.347.005.562.019.947-.543.9-1.068.079-1.211-.699-2.336-1.792-2.817 1.008-.478 1.494-1.809.87-2.774-.621-1.125-2.386-1.226-3.125-.171z"/></svg>
